<?xml version="1.0" encoding="utf-8"?>
<!-- Generator: Adobe Illustrator 18.0.0, SVG Export Plug-In . SVG Version: 6.00 Build 0)  -->
<!DOCTYPE svg PUBLIC "-//W3C//DTD SVG 1.1//EN" "http://www.w3.org/Graphics/SVG/1.1/DTD/svg11.dtd">
<svg version="1.1" id="Layer_1" xmlns="http://www.w3.org/2000/svg" xmlns:xlink="http://www.w3.org/1999/xlink" x="0px" y="0px"
	 width="800px" height="600px" viewBox="0 0 800 600" enable-background="new 0 0 800 600" xml:space="preserve">
<g>
	<radialGradient id="SVGID_1_" cx="-0.367" cy="599.558" r="615.5068" gradientUnits="userSpaceOnUse">
		<stop  offset="0" style="stop-color:#343091"/>
		<stop  offset="1" style="stop-color:#160C4B"/>
	</radialGradient>
	<rect fill="url(#SVGID_1_)" width="800" height="600"/>
	<linearGradient id="SVGID_2_" gradientUnits="userSpaceOnUse" x1="543.3655" y1="475.3805" x2="465.0033" y2="553.7427">
		<stop  offset="0" style="stop-color:#160C4B;stop-opacity:0"/>
		<stop  offset="1" style="stop-color:#D7DF23"/>
	</linearGradient>
	<circle fill="url(#SVGID_2_)" cx="509.6" cy="509.1" r="51"/>
	<linearGradient id="SVGID_4_" gradientUnits="userSpaceOnUse" x1="524.0192" y1="-64.6949" x2="325.4886" y2="133.8356">
		<stop  offset="0" style="stop-color:#160C4B;stop-opacity:0"/>
		<stop  offset="1" style="stop-color:#EE2A7B"/>
	</linearGradient>
	<path opacity="0.5" fill="url(#SVGID_4_)" d="M257.8,0c0,92.2,74.7,166.9,166.9,166.9S591.7,92.2,591.7,0H257.8z"/>
	<linearGradient id="SVGID_5_" gradientUnits="userSpaceOnUse" x1="462.0219" y1="356.9822" x2="228.6859" y2="590.3182">
		<stop  offset="0" style="stop-color:#160C4B;stop-opacity:0"/>
		<stop  offset="1" style="stop-color:#00AEEF"/>
	</linearGradient>
	<path opacity="0.5" fill="url(#SVGID_5_)" d="M348,304.1c-92.2,0-166.9,74.7-166.9,166.9c0,52,23.8,98.4,61,129h211.8
		c37.3-30.6,61-77,61-129C515,378.8,440.2,304.1,348,304.1z"/>
	<linearGradient id="SVGID_6_" gradientUnits="userSpaceOnUse" x1="209.3303" y1="161.6257" x2="351.804" y2="54.9709">
		<stop  offset="0" style="stop-color:#00AEEF"/>
		<stop  offset="1" style="stop-color:#160C4B;stop-opacity:0"/>
	</linearGradient>
	<circle fill="url(#SVGID_6_)" cx="280.3" cy="108.5" r="89.1"/>
	
		<linearGradient id="SVGID_7_" gradientUnits="userSpaceOnUse" x1="703.1693" y1="412.7324" x2="859.4124" y2="295.7699" gradientTransform="matrix(0.7071 0.7071 -0.7071 0.7071 -135.9357 -584.7195)">
		<stop  offset="0" style="stop-color:#00AEEF"/>
		<stop  offset="1" style="stop-color:#160C4B;stop-opacity:0"/>
	</linearGradient>
	<path fill="url(#SVGID_7_)" d="M273.9,104.7L52.2,326.4c-1.5,1.5-1.5,3.8,0,5.3h0c1.5,1.5,3.8,1.5,5.3,0L279.2,110
		c1.5-1.5,1.5-3.8,0-5.3v0C277.8,103.2,275.4,103.2,273.9,104.7z"/>
	<path fill="#FFFFFF" d="M177.3,243.9L46,375.2c-3.8,3.8-3.8,10,0,13.8l0,0c3.8,3.8,10,3.8,13.8,0l131.3-131.3
		c3.8-3.8,3.8-10,0-13.8l0,0C187.3,240.1,181.1,240.1,177.3,243.9z"/>
	
		<linearGradient id="SVGID_8_" gradientUnits="userSpaceOnUse" x1="1167.261" y1="141.2411" x2="1271.8387" y2="62.9549" gradientTransform="matrix(0.7071 0.7071 -0.7071 0.7071 -135.9357 -584.7195)">
		<stop  offset="0" style="stop-color:#00AEEF"/>
		<stop  offset="1" style="stop-color:#160C4B;stop-opacity:0"/>
	</linearGradient>
	<path fill="url(#SVGID_8_)" d="M712.7,277.2L581.5,408.5c-3.8,3.8-3.8,10,0,13.8v0c3.8,3.8,10,3.8,13.8,0l131.3-131.3
		c3.8-3.8,3.8-10,0-13.8l0,0C722.7,273.4,716.5,273.4,712.7,277.2z"/>
	
		<linearGradient id="SVGID_9_" gradientUnits="userSpaceOnUse" x1="1044.8711" y1="271.4179" x2="1149.449" y2="193.1317" gradientTransform="matrix(0.7071 0.7071 -0.7071 0.7071 -135.9357 -584.7195)">
		<stop  offset="0" style="stop-color:#EE2A7B"/>
		<stop  offset="1" style="stop-color:#160C4B;stop-opacity:0"/>
	</linearGradient>
	<path fill="url(#SVGID_9_)" d="M534.1,282.8L402.9,414c-3.8,3.8-3.8,10,0,13.8l0,0c3.8,3.8,10,3.8,13.8,0L548,296.6
		c3.8-3.8,3.8-10,0-13.8v0C544.1,278.9,538,278.9,534.1,282.8z"/>
	
		<linearGradient id="SVGID_10_" gradientUnits="userSpaceOnUse" x1="886.6365" y1="511.1793" x2="991.2144" y2="432.8931" gradientTransform="matrix(0.7071 0.7071 -0.7071 0.7071 -135.9357 -584.7195)">
		<stop  offset="0" style="stop-color:#00AEEF"/>
		<stop  offset="1" style="stop-color:#160C4B;stop-opacity:0"/>
	</linearGradient>
	<path fill="url(#SVGID_10_)" d="M252.7,340.4L121.4,471.7c-3.8,3.8-3.8,10,0,13.8h0c3.8,3.8,10,3.8,13.8,0l131.3-131.3
		c3.8-3.8,3.8-10,0-13.8l0,0C262.7,336.6,256.5,336.6,252.7,340.4z"/>
	<g>
		<path opacity="0.3" fill="none" stroke="#2D2A72" stroke-miterlimit="10" d="M358,284.5c-27.4,0-57.7-78.2-78.7-20
			s29.9,101.1,80.5,51.3c32.6-32.1,46.3-25.8,50.6,25.6c2.1,24.7,28.7,40.9,57.8,39.6c40.5-1.8-3.5-41.8-28.9-73.1
			s61.3-74.1-12.8-83.6C363,216.3,389.1,284.5,358,284.5z"/>
		<radialGradient id="SVGID_11_" cx="376.4442" cy="305.9323" r="94.7745" gradientUnits="userSpaceOnUse">
			<stop  offset="0" style="stop-color:#273478"/>
			<stop  offset="1" style="stop-color:#343472"/>
		</radialGradient>
		<path opacity="0.3438" fill="none" stroke="url(#SVGID_11_)" stroke-width="1.0625" stroke-miterlimit="10" d="M357.9,281.5
			c-28.1-2-53.3-84.3-79.1-26.2s23.2,105.6,78.6,58.4c35.7-30.4,49.2-23,49.9,29.9c0.3,25.5,26.3,43.9,56.2,44.8
			c41.6,1.2-0.5-43.1-24.2-76.9c-23.7-33.8,68.2-71.3-6.9-86.5C368.1,212.1,389.8,283.8,357.9,281.5z"/>
		<radialGradient id="SVGID_12_" cx="373.327" cy="309.4261" r="96.5022" gradientUnits="userSpaceOnUse">
			<stop  offset="0" style="stop-color:#203D7D"/>
			<stop  offset="1" style="stop-color:#3D3D72"/>
		</radialGradient>
		<path opacity="0.3875" fill="none" stroke="url(#SVGID_12_)" stroke-width="1.125" stroke-miterlimit="10" d="M357.9,278.5
			c-28.7-4-48.9-90.3-79.5-32.5s16.5,110.2,76.7,65.5c38.8-28.8,52.2-20.2,49.2,34.3c-1.4,26.2,24,47,54.6,49.9
			c42.7,4.1,2.5-44.3-19.5-80.7s75.1-68.5-1.1-89.4C373.2,207.8,390.5,283.1,357.9,278.5z"/>
		<radialGradient id="SVGID_13_" cx="370.1098" cy="310.6335" r="99.5225" gradientUnits="userSpaceOnUse">
			<stop  offset="0" style="stop-color:#144583"/>
			<stop  offset="1" style="stop-color:#464772"/>
		</radialGradient>
		<path opacity="0.4313" fill="none" stroke="url(#SVGID_13_)" stroke-width="1.1875" stroke-miterlimit="10" d="M357.9,275.5
			c-29.3-6.1-44.5-96.4-79.9-38.7s9.7,114.8,74.8,72.6c41.9-27.2,55.2-17.4,48.5,38.6c-3.2,26.9,21.7,50.1,53.1,55.1
			c43.7,7,5.5-45.6-14.8-84.6s82-65.8,4.7-92.3C378.4,203.6,391.2,282.3,357.9,275.5z"/>
		<radialGradient id="SVGID_14_" cx="370.7737" cy="310.2663" r="105.6006" gradientUnits="userSpaceOnUse">
			<stop  offset="0" style="stop-color:#004D8A"/>
			<stop  offset="1" style="stop-color:#4E5071"/>
		</radialGradient>
		<path opacity="0.475" fill="none" stroke="url(#SVGID_14_)" stroke-width="1.25" stroke-miterlimit="10" d="M357.9,272.4
			c-30-8.1-40.1-102.5-80.2-45s3,119.3,73,79.7c45.1-25.5,58.2-14.6,47.8,42.9c-5,27.7,19.3,53.1,51.5,60.3
			c44.8,10,8.4-46.8-10.1-88.4c-18.6-41.6,88.8-63,10.6-95.1C383.5,199.3,391.9,281.6,357.9,272.4z"/>
		<radialGradient id="SVGID_15_" cx="371.8023" cy="309.9218" r="112.0459" gradientUnits="userSpaceOnUse">
			<stop  offset="0" style="stop-color:#005590"/>
			<stop  offset="1" style="stop-color:#585970"/>
		</radialGradient>
		<path opacity="0.5188" fill="none" stroke="url(#SVGID_15_)" stroke-width="1.3125" stroke-miterlimit="10" d="M357.9,269.4
			c-30.6-10.1-35.7-108.6-80.6-51.2s-3.7,123.9,71.1,86.8c48.2-23.9,61.2-11.8,47.1,47.2c-6.8,28.4,17,56.2,50,65.5
			c45.9,12.9,11.4-48-5.4-92.2s95.7-60.2,16.4-98C388.6,195.1,392.6,280.9,357.9,269.4z"/>
		<radialGradient id="SVGID_16_" cx="372.7634" cy="309.591" r="118.6018" gradientUnits="userSpaceOnUse">
			<stop  offset="0" style="stop-color:#005C96"/>
			<stop  offset="1" style="stop-color:#61626E"/>
		</radialGradient>
		<path opacity="0.5625" fill="none" stroke="url(#SVGID_16_)" stroke-width="1.375" stroke-miterlimit="10" d="M357.8,266.4
			c-31.3-12.1-31.3-114.6-81-57.5s-10.4,128.5,69.2,94c51.3-22.2,64.1-9,46.4,51.6c-8.5,29.1,14.7,59.3,48.4,70.6
			c47,15.8,14.4-49.3-0.7-96.1s102.6-57.5,22.3-100.9C393.7,190.8,393.3,280.1,357.8,266.4z"/>
		<radialGradient id="SVGID_17_" cx="373.667" cy="309.2682" r="125.2505" gradientUnits="userSpaceOnUse">
			<stop  offset="0" style="stop-color:#00649D"/>
			<stop  offset="1" style="stop-color:#6B6C6D"/>
		</radialGradient>
		<path opacity="0.6062" fill="none" stroke="url(#SVGID_17_)" stroke-width="1.4375" stroke-miterlimit="10" d="M357.8,263.4
			c-31.9-14.1-26.9-120.7-81.4-63.7s-17.2,133,67.3,101.1c54.4-20.6,67.1-6.2,45.7,55.9c-10.3,29.9,12.3,62.3,46.8,75.8
			c48.1,18.8,17.4-50.5,4-99.9s109.5-54.7,28.1-103.8C398.8,186.6,394,279.4,357.8,263.4z"/>
		<radialGradient id="SVGID_18_" cx="374.5216" cy="308.9493" r="131.9778" gradientUnits="userSpaceOnUse">
			<stop  offset="0" style="stop-color:#006BA4"/>
			<stop  offset="1" style="stop-color:#75756A"/>
		</radialGradient>
		<path opacity="0.65" fill="none" stroke="url(#SVGID_18_)" stroke-width="1.5" stroke-miterlimit="10" d="M357.8,260.4
			c-32.6-16.1-22.5-126.8-81.7-70S252.1,328,341.5,298.5c57.5-18.9,70.1-3.4,45,60.2c-12.1,30.6,10,65.4,45.3,81
			c49.1,21.7,20.4-51.8,8.7-103.8s116.4-51.9,34-106.7C403.9,182.3,394.7,278.7,357.8,260.4z"/>
		<radialGradient id="SVGID_19_" cx="375.3344" cy="308.6318" r="138.7718" gradientUnits="userSpaceOnUse">
			<stop  offset="0" style="stop-color:#0072AC"/>
			<stop  offset="1" style="stop-color:#7F8068"/>
		</radialGradient>
		<path opacity="0.6938" fill="none" stroke="url(#SVGID_19_)" stroke-width="1.5625" stroke-miterlimit="10" d="M357.8,257.3
			c-33.2-18.1-18.1-132.8-82.1-76.3S245,323.2,339.2,296.4c60.7-17.3,73.1-0.6,44.3,64.5c-13.8,31.3,7.7,68.4,43.7,86.1
			c50.2,24.7,23.4-53,13.4-107.6c-10-54.6,123.2-49.1,39.8-109.6C409,178.1,395.4,277.9,357.8,257.3z"/>
		<radialGradient id="SVGID_20_" cx="376.1115" cy="308.3138" r="145.6232" gradientUnits="userSpaceOnUse">
			<stop  offset="0" style="stop-color:#007AB4"/>
			<stop  offset="1" style="stop-color:#898B64"/>
		</radialGradient>
		<path opacity="0.7375" fill="none" stroke="url(#SVGID_20_)" stroke-width="1.625" stroke-miterlimit="10" d="M357.7,254.3
			c-33.8-20.2-13.7-138.9-82.5-82.5s-37.4,146.7,61.7,122.4c63.8-15.7,76,2.2,43.6,68.8c-15.6,32.1,5.3,71.5,42.2,91.3
			c51.3,27.6,26.4-54.2,18.1-111.4s130.1-46.4,45.6-112.5C414.1,173.8,396.1,277.2,357.7,254.3z"/>
		<radialGradient id="SVGID_21_" cx="376.858" cy="307.994" r="152.5241" gradientUnits="userSpaceOnUse">
			<stop  offset="0" style="stop-color:#0082BC"/>
			<stop  offset="1" style="stop-color:#94965E"/>
		</radialGradient>
		<path opacity="0.7813" fill="none" stroke="url(#SVGID_21_)" stroke-width="1.6875" stroke-miterlimit="10" d="M357.7,251.3
			c-34.5-22.2-9.3-145-82.9-88.8s-44.1,151.3,59.8,129.5c66.9-14,79,5,42.9,73.2c-17.4,32.8,3,74.6,40.6,96.5
			c52.4,30.5,29.4-55.5,22.7-115.3s137-43.6,51.5-115.4C419.2,169.6,396.8,276.4,357.7,251.3z"/>
		<radialGradient id="SVGID_22_" cx="377.5782" cy="307.6717" r="159.4681" gradientUnits="userSpaceOnUse">
			<stop  offset="0" style="stop-color:#008AC5"/>
			<stop  offset="1" style="stop-color:#A0A357"/>
		</radialGradient>
		<path opacity="0.825" fill="none" stroke="url(#SVGID_22_)" stroke-width="1.75" stroke-miterlimit="10" d="M357.7,248.3
			c-35.1-24.2-4.9-151-83.2-95s-50.8,155.9,57.9,136.6c70-12.4,82,7.8,42.2,77.5c-19.1,33.5,0.7,77.6,39,101.7
			c53.5,33.5,32.4-56.7,27.4-119.1c-4.9-62.4,143.9-40.8,57.3-118.3C424.4,165.3,397.5,275.7,357.7,248.3z"/>
		<radialGradient id="SVGID_23_" cx="378.2758" cy="307.3463" r="166.4497" gradientUnits="userSpaceOnUse">
			<stop  offset="0" style="stop-color:#0092CE"/>
			<stop  offset="1" style="stop-color:#ACB04F"/>
		</radialGradient>
		<path opacity="0.8687" fill="none" stroke="url(#SVGID_23_)" stroke-width="1.8125" stroke-miterlimit="10" d="M357.7,245.2
			C321.9,219,357.2,88.1,274.1,144s-57.5,160.4,56,143.8c73.1-10.7,85,10.6,41.5,81.8c-20.9,34.3-1.7,80.7,37.5,106.8
			c54.5,36.4,35.4-57.9,32.1-122.9c-3.2-65,150.8-38.1,63.2-121.2C429.5,161.1,398.2,275,357.7,245.2z"/>
		<radialGradient id="SVGID_24_" cx="378.9539" cy="307.0174" r="173.4645" gradientUnits="userSpaceOnUse">
			<stop  offset="0" style="stop-color:#009AD7"/>
			<stop  offset="1" style="stop-color:#B9BE44"/>
		</radialGradient>
		<path opacity="0.9125" fill="none" stroke="url(#SVGID_24_)" stroke-width="1.875" stroke-miterlimit="10" d="M357.7,242.2
			c-36.4-28.2,3.9-163.2-84-107.5s-64.3,165,54.1,150.9c76.3-9.1,88,13.4,40.8,86.1c-22.7,35-4,83.8,35.9,112
			c55.6,39.3,38.4-59.2,36.8-126.8c-1.5-67.6,157.7-35.3,69-124.1C434.6,156.8,399,274.2,357.7,242.2z"/>
		<radialGradient id="SVGID_25_" cx="379.6151" cy="306.6848" r="180.5086" gradientUnits="userSpaceOnUse">
			<stop  offset="0" style="stop-color:#00A3E1"/>
			<stop  offset="1" style="stop-color:#C7CD36"/>
		</radialGradient>
		<path opacity="0.9563" fill="none" stroke="url(#SVGID_25_)" stroke-width="1.9375" stroke-miterlimit="10" d="M357.6,239.2
			c-37-30.2,8.3-169.3-84.4-113.8s-71,169.6,52.3,158c79.4-7.4,90.9,16.2,40.1,90.4c-24.4,35.7-6.3,86.8,34.4,117.2
			c56.7,42.3,41.4-60.4,41.5-130.6s164.5-32.5,74.8-127C439.7,152.6,399.7,273.5,357.6,239.2z"/>
		<radialGradient id="SVGID_26_" cx="380.2616" cy="306.3483" r="187.5787" gradientUnits="userSpaceOnUse">
			<stop  offset="0" style="stop-color:#00AEEF"/>
			<stop  offset="1" style="stop-color:#D7DF23"/>
		</radialGradient>
		<path fill="none" stroke="url(#SVGID_26_)" stroke-width="2" stroke-miterlimit="10" d="M357.6,236.2
			c-37.7-32.3,12.7-175.3-84.8-120s-77.7,174.1,50.4,165.1c82.5-5.8,93.9,19,39.4,94.8c-26.2,36.5-8.7,89.9,32.8,122.3
			c57.8,45.2,44.4-61.7,46.2-134.4s171.4-29.7,80.7-129.9C444.8,148.3,400.4,272.8,357.6,236.2z"/>
		<radialGradient id="SVGID_27_" cx="380.0311" cy="303.1037" r="187.1037" gradientUnits="userSpaceOnUse">
			<stop  offset="0" style="stop-color:#00AEEF"/>
			<stop  offset="1" style="stop-color:#D8D531"/>
		</radialGradient>
		<path fill="none" stroke="url(#SVGID_27_)" stroke-width="2.0625" stroke-miterlimit="10" d="M378.2,231.8
			c-25.3-28.7-21.5-79-35.1-105.8c-9.5-18.5-27.8-30.2-70.3-11.1c-99.1,44.5-87.8,174.4,40.9,165.5c92.2-6.2,85.4,26.3,42.4,104.8
			c-20.9,38.2,7.2,85.8,42.7,108.3c56.1,35.5,43-62.3,47.5-131.6c4.3-69.2,166.4-29.6,83.6-125.1
			C459.1,155.1,414.8,273.4,378.2,231.8z"/>
		<radialGradient id="SVGID_28_" cx="379.8425" cy="301.0334" r="187.4737" gradientUnits="userSpaceOnUse">
			<stop  offset="0" style="stop-color:#00AEEF"/>
			<stop  offset="1" style="stop-color:#D9CC3E"/>
		</radialGradient>
		<path fill="none" stroke="url(#SVGID_28_)" stroke-width="2.125" stroke-miterlimit="10" d="M398.8,227.4
			c-28.7-39.4-29.3-82.6-47.3-102.8c-12.8-14.3-33.8-26.2-78.8-10.8c-100,34-97.9,174.7,31.3,165.9c101.9-6.6,76.9,34,45.3,114.9
			c-15.6,40.1,20.3,86.7,52.6,94.3c49.4,33.3,41.9-63,48.9-128.9c6.9-65.6,161.4-29.5,86.5-120.3C473.4,161.8,431,271.6,398.8,227.4
			z"/>
		<radialGradient id="SVGID_29_" cx="379.6604" cy="298.3523" r="187.7206" gradientUnits="userSpaceOnUse">
			<stop  offset="0" style="stop-color:#00AEEF"/>
			<stop  offset="1" style="stop-color:#DBC349"/>
		</radialGradient>
		<path fill="none" stroke="url(#SVGID_29_)" stroke-width="2.1875" stroke-miterlimit="10" d="M419.3,223
			c-31.9-50.6-37.7-86.3-59.4-99.9c-16.5-10.4-39.5-22-87.4-10.6c-100.4,24.1-107.9,174.9,21.8,166.3c111.6-7,68.5,42.2,48.3,125
			c-10.3,42.2,34.7,85.2,62.6,80.2c45.2,27.3,40.7-63.7,50.2-126.1c9.4-62.1,156.4-29.3,89.4-115.6
			C487.7,168.5,448.2,268.8,419.3,223z"/>
		<radialGradient id="SVGID_30_" cx="379.4572" cy="296.1437" r="188.4282" gradientUnits="userSpaceOnUse">
			<stop  offset="0" style="stop-color:#00AEEF"/>
			<stop  offset="1" style="stop-color:#DCBA54"/>
		</radialGradient>
		<path fill="none" stroke="url(#SVGID_30_)" stroke-width="2.25" stroke-miterlimit="10" d="M439.9,218.6
			c-23.3-67.3-46.9-89.6-71.5-97c-20.8-6.2-45.1-17.8-95.9-10.3c-100.3,14.7-118,174.9,12.3,166.7c121.3-7.6,60.5,50.7,51.2,135
			c-4.9,44.5,49.2,83.6,72.5,66.2c41,21.3,39.5-64.3,51.5-123.3c11.9-58.5,151.3-29.2,92.3-110.8C502,175.2,473.7,260.2,439.9,218.6
			z"/>
		<radialGradient id="SVGID_31_" cx="379.1863" cy="297.4895" r="191.2625" gradientUnits="userSpaceOnUse">
			<stop  offset="0" style="stop-color:#00AEEF"/>
			<stop  offset="1" style="stop-color:#DDB15C"/>
		</radialGradient>
		<path fill="none" stroke="url(#SVGID_31_)" stroke-width="2.3125" stroke-miterlimit="10" d="M460.5,214.2
			c-36.9-74.2-56.2-92.4-83.7-94c-25.2-1.5-50.4-13.3-104.5-10.1c-99.8,5.9-128.1,175.2,2.8,167.1c131-8.1,52.8,59.3,54.2,145.1
			c0.7,46.9,63.6,82,82.4,52.1c36.8,15.3,38.2-65,52.8-120.5c14.4-54.9,146.2-29,95.2-106C516.1,182,484.2,261.8,460.5,214.2z"/>
		<radialGradient id="SVGID_32_" cx="378.8769" cy="299.1726" r="195.0591" gradientUnits="userSpaceOnUse">
			<stop  offset="0" style="stop-color:#00AEEF"/>
			<stop  offset="1" style="stop-color:#DEA863"/>
		</radialGradient>
		<path fill="none" stroke="url(#SVGID_32_)" stroke-width="2.375" stroke-miterlimit="10" d="M481,209.8
			c-38.7-86.3-65.4-94.8-95.8-91.1c-29.4,3.6-55.7-8.5-113-9.8c-99.3-2.3-138.1,175.4-6.8,167.5c140.8-8.5,45.6,68,57.2,155.2
			c6.6,49.3,78.1,80.5,92.3,38.1c32.6,9.4,36.9-65.6,54.1-117.7c16.9-51.3,141.1-28.8,98.1-101.2C530.4,188.7,502.7,258.1,481,209.8
			z"/>
		<radialGradient id="SVGID_33_" cx="378.5079" cy="301.1012" r="199.5439" gradientUnits="userSpaceOnUse">
			<stop  offset="0" style="stop-color:#00AEEF"/>
			<stop  offset="1" style="stop-color:#E09E69"/>
		</radialGradient>
		<path fill="none" stroke="url(#SVGID_33_)" stroke-width="2.4375" stroke-miterlimit="10" d="M501.6,205.3
			c-39.9-98.6-74.3-97-107.9-88.2c-33.5,8.9-60.9-3.4-121.5-9.6c-98.7-10-148.2,175.7-16.3,167.9c150.5-8.9,38.6,76.7,60.1,165.3
			c12.6,51.7,92.6,78.9,102.2,24c28.4,3.4,35.7-66.2,55.5-114.9c19.4-47.7,136.1-28.7,101-96.4C544.6,195.5,521.4,254.4,501.6,205.3
			z"/>
		<radialGradient id="SVGID_34_" cx="378.0993" cy="303.338" r="204.49" gradientUnits="userSpaceOnUse">
			<stop  offset="0" style="stop-color:#00AEEF"/>
			<stop  offset="1" style="stop-color:#E1956D"/>
		</radialGradient>
		<path fill="none" stroke="url(#SVGID_34_)" stroke-width="2.5" stroke-miterlimit="10" d="M522.2,200.9
			c-40.5-111.1-83.1-99.2-120-85.2c-37.4,14.2-66.3,1.9-130.1-9.3c-98.2-17.3-158.3,176-25.8,168.3c160.2-9.3,31.8,85.2,63.1,175.3
			c18.7,54,107,77.3,112.1,10c24.2-2.6,34.4-66.8,56.8-112.1c21.8-44.1,131-28.6,103.9-91.7C558.9,202.2,540.3,250.6,522.2,200.9z"
			/>
		<radialGradient id="SVGID_35_" cx="377.6931" cy="303.8343" r="210.7743" gradientUnits="userSpaceOnUse">
			<stop  offset="0" style="stop-color:#00AEEF"/>
			<stop  offset="1" style="stop-color:#E28C71"/>
		</radialGradient>
		<path fill="none" stroke="url(#SVGID_35_)" stroke-width="2.5625" stroke-miterlimit="10" d="M542.8,196.5
			c-40.6-123.7-91.7-101.5-132.2-82.3c-41.2,19.5-71.7,7.5-138.6-9.1c-97.9-24.2-168.3,176.3-35.3,168.7
			c169.9-9.7,25.2,93.5,66,185.4c24.9,56.2,121.5,75.7,122-4.1c20-8.5,33-67.5,58.1-109.3c24.2-40.5,126-28.5,106.8-86.9
			C573.2,208.9,559.3,246.9,542.8,196.5z"/>
		<radialGradient id="SVGID_36_" cx="377.361" cy="303.3968" r="217.9392" gradientUnits="userSpaceOnUse">
			<stop  offset="0" style="stop-color:#00AEEF"/>
			<stop  offset="1" style="stop-color:#E48274"/>
		</radialGradient>
		<path fill="none" stroke="url(#SVGID_36_)" stroke-width="2.625" stroke-miterlimit="10" d="M563.3,192.1
			C523.3,55.8,463.1,88.4,419,112.8c-44.8,24.8-77.3,13.3-147.2-8.8C174.1,73,93.5,280.8,227,273.1c179.6-9.7,18.7,101.7,69,195.5
			c31.2,58.3,136,74.2,132-18.1c15.8-14.5,31.7-68.1,59.4-106.6c26.6-36.9,120.9-28.4,109.7-82.1
			C587.4,215.6,578.3,243.2,563.3,192.1z"/>
		<radialGradient id="SVGID_37_" cx="377.2038" cy="302.878" r="225.5536" gradientUnits="userSpaceOnUse">
			<stop  offset="0" style="stop-color:#00AEEF"/>
			<stop  offset="1" style="stop-color:#E57877"/>
		</radialGradient>
		<path fill="none" stroke="url(#SVGID_37_)" stroke-width="2.6875" stroke-miterlimit="10" d="M583.9,187.7
			c-39.1-149.1-108.7-106-156.4-76.4c-48.5,30.1-83,19.3-155.7-8.6c-97.9-37.5-188.4,177.1-54.4,169.5
			c189.3-10.1,12.2,109.7,71.9,205.5c37.6,60.3,150.4,72.6,141.9-32.2c11.6-20.5,30.3-68.8,60.7-103.8
			c29-33.3,115.9-28.3,112.6-77.3C601.7,222.3,597.5,239.6,583.9,187.7z"/>
		<radialGradient id="SVGID_38_" cx="378.597" cy="302.3156" r="234.2348" gradientUnits="userSpaceOnUse">
			<stop  offset="0" style="stop-color:#00AEEF"/>
			<stop  offset="1" style="stop-color:#E66D79"/>
		</radialGradient>
		<path fill="none" stroke="url(#SVGID_38_)" stroke-width="2.75" stroke-miterlimit="10" d="M604.5,183.3
			C567,21.5,487.4,75,435.9,109.9c-52.1,35.3-88.9,25.5-164.3-8.3c-98.2-44-198.5,177.4-63.9,169.9c199.1-10.5,5.7,117.6,74.9,215.6
			c43.9,62.2,164.9,71,151.8-46.2c7.4-26.5,28.9-69.5,62-101c31.3-29.8,110.9-28.2,115.5-72.5C616,228.9,616.7,236,604.5,183.3z"/>
		<radialGradient id="SVGID_40_" cx="383.0538" cy="301.9177" r="244.7863" gradientUnits="userSpaceOnUse">
			<stop  offset="0" style="stop-color:#00AEEF"/>
			<stop  offset="1" style="stop-color:#E8607A"/>
		</radialGradient>
		<path fill="none" stroke="url(#SVGID_40_)" stroke-width="2.8125" stroke-miterlimit="10" d="M625.1,178.9
			C589.6,4.4,499.5,68.2,444.4,108.4c-55.7,40.6-95,31.7-172.8-8.1C172.8,49.9,63,278,198.2,270.6c208.8-10.9-0.9,125.4,77.8,225.7
			c50.3,64.1,164.2,70.6,161.7-60.3c-0.6-32.6,27.5-70.2,63.4-98.2c33.7-26.3,105.9-28.1,118.4-67.7
			C630.3,235.6,635.9,232.5,625.1,178.9z"/>
		<radialGradient id="SVGID_42_" cx="388.4056" cy="301.3154" r="255.8864" gradientUnits="userSpaceOnUse">
			<stop  offset="0" style="stop-color:#00AEEF"/>
			<stop  offset="1" style="stop-color:#E9527B"/>
		</radialGradient>
		<path fill="none" stroke="url(#SVGID_42_)" stroke-width="2.875" stroke-miterlimit="10" d="M645.6,174.5
			c-33-187.3-133.9-113.1-192.8-67.6c-59.3,45.8-101.2,38-181.3-7.8C172,42.2,52.8,277,188.5,269.8c218.5-11.3-7.4,133.1,80.8,235.8
			c56.6,65.9,184.7,69,171.6-74.3c-3.5-38.3,26-70.9,64.7-95.4c36-22.8,101-28,121.3-63C644.7,242.3,655.2,229.1,645.6,174.5z"/>
		<radialGradient id="SVGID_43_" cx="394.1184" cy="300.661" r="267.3054" gradientUnits="userSpaceOnUse">
			<stop  offset="0" style="stop-color:#00AEEF"/>
			<stop  offset="1" style="stop-color:#EB417B"/>
		</radialGradient>
		<path fill="none" stroke="url(#SVGID_43_)" stroke-width="2.9375" stroke-miterlimit="10" d="M666.2,170.1
			c-30-199.9-142.3-115.5-204.9-64.7c-62.9,51-107.5,44.4-189.9-7.6C171,34.5,42.7,276.1,178.9,269c228.2-11.7-14,140.8,83.7,245.8
			c62.9,67.6,204.1,67,181.5-88.3c-6.4-44.2,24.6-71.7,66-92.6c38.4-19.4,96.1-27.9,124.2-58.2C659.1,249.1,674.5,225.7,666.2,170.1
			z"/>
		<radialGradient id="SVGID_44_" cx="400" cy="300" r="278.9394" gradientUnits="userSpaceOnUse">
			<stop  offset="0" style="stop-color:#00AEEF"/>
			<stop  offset="1" style="stop-color:#EE2A7B"/>
		</radialGradient>
		<path fill="none" stroke="url(#SVGID_44_)" stroke-width="3" stroke-miterlimit="10" d="M686.8,165.7
			C660-46.8,536.1,47.9,469.7,104s-114,50.8-198.4-7.3c-101.5-69.9-238.8,178.5-102,171.5c237.9-12.1-20.7,148.4,86.7,255.9
			c69.2,69.4,222.7,64.7,191.4-102.4C421.6,284,710.8,356.7,686.8,165.7z"/>
	</g>
	<radialGradient id="SVGID_45_" cx="126.3697" cy="179.7081" r="39.1521" gradientUnits="userSpaceOnUse">
		<stop  offset="0" style="stop-color:#FFDE17"/>
		<stop  offset="0.1989" style="stop-color:#F7941E"/>
		<stop  offset="0.2583" style="stop-color:#F79220"/>
		<stop  offset="0.3099" style="stop-color:#F78E29"/>
		<stop  offset="0.3588" style="stop-color:#F68838"/>
		<stop  offset="0.4059" style="stop-color:#F47E49"/>
		<stop  offset="0.4517" style="stop-color:#F3715A"/>
		<stop  offset="0.4967" style="stop-color:#F15E68"/>
		<stop  offset="0.5401" style="stop-color:#EF4275"/>
		<stop  offset="0.5632" style="stop-color:#EE2A7B"/>
		<stop  offset="0.6104" style="stop-color:#E72A7C"/>
		<stop  offset="0.6776" style="stop-color:#D9297E"/>
		<stop  offset="0.7567" style="stop-color:#C42981"/>
		<stop  offset="0.8449" style="stop-color:#A62A85"/>
		<stop  offset="0.9395" style="stop-color:#822C8B"/>
		<stop  offset="1" style="stop-color:#662D91"/>
	</radialGradient>
	<circle fill="url(#SVGID_45_)" cx="132" cy="185.4" r="33.7"/>
	
		<linearGradient id="SVGID_46_" gradientUnits="userSpaceOnUse" x1="1173.1353" y1="192.1347" x2="1329.3783" y2="75.1722" gradientTransform="matrix(0.7071 0.7071 -0.7071 0.7071 -135.9357 -584.7195)">
		<stop  offset="0" style="stop-color:#EE2A7B"/>
		<stop  offset="1" style="stop-color:#160C4B;stop-opacity:0"/>
	</linearGradient>
	<path fill="url(#SVGID_46_)" d="M762.2,281L540.5,502.7c-1.5,1.5-1.5,3.8,0,5.3l0,0c1.5,1.5,3.8,1.5,5.3,0l221.8-221.8
		c1.5-1.5,1.5-3.8,0-5.3v0C766.1,279.5,763.7,279.5,762.2,281z"/>
	<path fill="#FFFFFF" d="M583.6,356.4L361.9,578.2c-1.5,1.5-1.5,3.8,0,5.3l0,0c1.5,1.5,3.8,1.5,5.3,0l221.8-221.8
		c1.5-1.5,1.5-3.8,0-5.3l0,0C587.5,354.9,585.1,354.9,583.6,356.4z"/>
	
		<linearGradient id="SVGID_47_" gradientUnits="userSpaceOnUse" x1="982.5413" y1="86.962" x2="1138.7844" y2="-30.0005" gradientTransform="matrix(0.7071 0.7071 -0.7071 0.7071 -135.9357 -584.7195)">
		<stop  offset="0" style="stop-color:#EE2A7B"/>
		<stop  offset="1" style="stop-color:#160C4B;stop-opacity:0"/>
	</linearGradient>
	<path fill="url(#SVGID_47_)" d="M701.8,71.8L480.1,293.6c-1.5,1.5-1.5,3.8,0,5.3l0,0c1.5,1.5,3.8,1.5,5.3,0L707.1,77.2
		c1.5-1.5,1.5-3.8,0-5.3v0C705.7,70.4,703.3,70.4,701.8,71.8z"/>
	
		<linearGradient id="SVGID_48_" gradientUnits="userSpaceOnUse" x1="836.3609" y1="580.5833" x2="992.6041" y2="463.6208" gradientTransform="matrix(0.7071 0.7071 -0.7071 0.7071 -135.9357 -584.7195)">
		<stop  offset="0" style="stop-color:#D7DF23"/>
		<stop  offset="1" style="stop-color:#160C4B;stop-opacity:0"/>
	</linearGradient>
	<path fill="url(#SVGID_48_)" d="M249.4,317.5L27.7,539.3c-1.5,1.5-1.5,3.8,0,5.3h0c1.5,1.5,3.8,1.5,5.3,0l221.8-221.8
		c1.5-1.5,1.5-3.8,0-5.3l0,0C253.3,316.1,250.9,316.1,249.4,317.5z"/>
	<path fill="#FFFFFF" d="M647.6,93.7L425.9,315.5c-1.5,1.5-1.5,3.8,0,5.3l0,0c1.5,1.5,3.8,1.5,5.3,0L652.9,99c1.5-1.5,1.5-3.8,0-5.3
		v0C651.4,92.3,649.1,92.3,647.6,93.7z"/>
	
		<linearGradient id="SVGID_49_" gradientUnits="userSpaceOnUse" x1="780.2147" y1="220.0636" x2="884.7925" y2="141.7774" gradientTransform="matrix(0.7071 0.7071 -0.7071 0.7071 -135.9357 -584.7195)">
		<stop  offset="0" style="stop-color:#EE2A7B"/>
		<stop  offset="1" style="stop-color:#160C4B;stop-opacity:0"/>
	</linearGradient>
	<path fill="url(#SVGID_49_)" d="M383.3,59.3L252,190.6c-3.8,3.8-3.8,10,0,13.8l0,0c3.8,3.8,10,3.8,13.8,0L397.1,73.1
		c3.8-3.8,3.8-10,0-13.8v0C393.3,55.5,387.1,55.5,383.3,59.3z"/>
	<linearGradient id="SVGID_50_" gradientUnits="userSpaceOnUse" x1="787.535" y1="252.2113" x2="633.7908" y2="405.9554">
		<stop  offset="0" style="stop-color:#160C4B;stop-opacity:0"/>
		<stop  offset="1" style="stop-color:#EE2A7B"/>
	</linearGradient>
	<path opacity="0.5" fill="url(#SVGID_50_)" d="M800,267.3c-18.6-27.4-50-45.4-85.6-45.4c-57.2,0-103.5,46.3-103.5,103.5
		c0,57.2,46.3,103.5,103.5,103.5c35.6,0,67-18,85.6-45.4V267.3z"/>
	<linearGradient id="SVGID_51_" gradientUnits="userSpaceOnUse" x1="661.0481" y1="281.7241" x2="570.2534" y2="286.274">
		<stop  offset="0" style="stop-color:#662D91"/>
		<stop  offset="6.053135e-002" style="stop-color:#822C8B"/>
		<stop  offset="0.1551" style="stop-color:#A62A85"/>
		<stop  offset="0.2433" style="stop-color:#C42981"/>
		<stop  offset="0.3224" style="stop-color:#D9297E"/>
		<stop  offset="0.3896" style="stop-color:#E72A7C"/>
		<stop  offset="0.4368" style="stop-color:#EE2A7B"/>
		<stop  offset="0.4599" style="stop-color:#EF4275"/>
		<stop  offset="0.5033" style="stop-color:#F15E68"/>
		<stop  offset="0.5483" style="stop-color:#F3715A"/>
		<stop  offset="0.5941" style="stop-color:#F47E49"/>
		<stop  offset="0.6412" style="stop-color:#F68838"/>
		<stop  offset="0.6901" style="stop-color:#F78E29"/>
		<stop  offset="0.7417" style="stop-color:#F79220"/>
		<stop  offset="0.8011" style="stop-color:#F7941E"/>
		<stop  offset="1" style="stop-color:#FFDE17"/>
	</linearGradient>
	<path fill="url(#SVGID_51_)" d="M630.7,223.6c-73.2,27.7-59.8,78.5-19.6,70.1c46.1-9.6,14,65,60.9,46.7
		c29.6-11.6-0.5-44.8-14.7-59.1C643.2,267.1,670.8,208.5,630.7,223.6z"/>
</g>
</svg>
